<svg viewBox="0 0 200 200" xmlns="http://www.w3.org/2000/svg">
  <rect width="200" height="200" fill="#20c997" rx="40"/>
  <path d="M100 30 L160 60 L160 110 C160 150 130 170 100 190 C70 170 40 150 40 110 L40 60 Z" fill="#ffffff" stroke="#ffffff" stroke-width="4"/>
  <path d="M100 40 L150 65 L150 105 C150 135 125 150 100 165 C75 150 50 135 50 105 L50 65 Z" fill="#20c997"/>
  <path d="M70 110 L90 130 L130 90" fill="none" stroke="#ffffff" stroke-width="8" stroke-linecap="round" stroke-linejoin="round"/>
  <circle cx="140" cy="80" r="18" fill="#ffffff"/>
  <circle cx="140" cy="80" r="11" fill="#20c997"/>
  <rect x="136" y="72" width="8" height="12" rx="2" fill="#ffffff"/>
  <circle cx="140" cy="90" r="3" fill="#ffffff"/>
  <line x1="140" y1="57" x2="140" y2="50" stroke="#ffffff" stroke-width="3" stroke-linecap="round"/>
  <line x1="140" y1="103" x2="140" y2="110" stroke="#ffffff" stroke-width="3" stroke-linecap="round"/>
  <line x1="122" y1="75" x2="115" y2="70" stroke="#ffffff" stroke-width="3" stroke-linecap="round"/>
  <line x1="158" y1="85" x2="165" y2="85" stroke="#ffffff" stroke-width="3" stroke-linecap="round"/>
</svg>
